<svg width="22" height="19" fill="none" xmlns="http://www.w3.org/2000/svg"><path d="M8.333 15.74a.425.425 0 00-.389-.242.419.419 0 00-.382.23l-.293.569c-.244.474-.956.421-1.126-.078L5.5 14.346l-.405 1.183a1.646 1.646 0 01-1.566 1.096h-.473a.602.602 0 01-.612-.594c0-.328.274-.593.612-.593h.473a.427.427 0 00.406-.285l.695-2.027a.916.916 0 01.87-.61c.395 0 .744.245.87.61l.53 1.545c.754-.601 2.065-.36 2.52.525.073.14.21.221.358.233V12.38l4.889-4.716V5.937H9.472c-.504 0-.916-.4-.916-.89V0H.916A.902.902 0 000 .89v17.22c0 .493.409.89.917.89H13.75a.902.902 0 00.917-.89v-1.485l-4.89-.004a1.645 1.645 0 01-1.444-.881zm6.334-11.216a.875.875 0 00-.268-.628L10.66.26a.93.93 0 00-.65-.26h-.232v4.75h4.889v-.226zM11 12.876v2.562h2.635l6.175-6.041-2.592-2.52-6.218 6zM21.715 6.21l-1.217-1.183a.993.993 0 00-1.376 0l-1.04 1.011 2.592 2.519 1.041-1.011a.926.926 0 000-1.336z" fill="#404040"/></svg>