<svg width="12" height="13" fill="none" xmlns="http://www.w3.org/2000/svg"><path d="M5.063.038h1.875A.56.56 0 017.5.6v3.938h2.055c.418 0 .626.504.33.8L6.322 8.903a.454.454 0 01-.64 0l-3.57-3.567a.468.468 0 01.331-.8H4.5V.6a.56.56 0 01.563-.562zM12 8.85v2.625c0 .312-.25.563-.563.563H.563A.561.561 0 010 11.475V8.85a.56.56 0 01.563-.562H4l1.148 1.148c.471.471 1.23.471 1.702 0l1.148-1.148h3.439a.56.56 0 01.562.562zm-2.906 2.063a.47.47 0 00-.469-.469.47.47 0 00-.469.469.47.47 0 00.469.469.47.47 0 00.469-.47zm1.5 0a.47.47 0 00-.469-.469.47.47 0 00-.469.469.47.47 0 00.469.469.47.47 0 00.469-.47z" fill="#F60"/></svg>