<svg width="12" height="13" fill="none" xmlns="http://www.w3.org/2000/svg"><path d="M11.67 3.367l-1.081 1.08a.282.282 0 01-.399 0l-2.6-2.601a.282.282 0 010-.399L8.67.367a1.128 1.128 0 011.592 0l1.409 1.408c.44.439.44 1.151 0 1.592zm-5.01-.992L.507 8.53.01 11.378a.563.563 0 00.651.652l2.848-.5 6.155-6.155a.282.282 0 000-.398L7.061 2.375a.284.284 0 00-.4 0zM2.909 8.003a.327.327 0 010-.464l3.61-3.61a.327.327 0 01.464 0 .327.327 0 010 .464l-3.61 3.61a.327.327 0 01-.464 0zm-.846 1.971h1.125v.85l-1.512.266-.729-.73.265-1.511h.851v1.125z" fill="#F60"/></svg>