<svg width="17" height="23" fill="none" xmlns="http://www.w3.org/2000/svg"><path d="M9.917 6.11V0H1.063C.473 0 0 .48 0 1.078v20.844C0 22.519.474 23 1.063 23h14.874c.59 0 1.063-.48 1.063-1.078V7.187h-6.02A1.074 1.074 0 019.916 6.11zm3.384 9.494l-4.268 4.3a.747.747 0 01-1.065 0l-4.268-4.3c-.45-.452-.134-1.229.498-1.229h2.885v-3.594c0-.397.317-.719.709-.719h1.416c.392 0 .709.322.709.72v3.593h2.885c.632 0 .948.777.5 1.23zm3.39-10.887L12.355.314c-.2-.202-.47-.314-.753-.314h-.27v5.75H17v-.274c0-.283-.11-.557-.31-.76z" fill="#404040"/></svg>