<svg width="25" height="21" fill="none" xmlns="http://www.w3.org/2000/svg"><path d="M12.168 5.448l-8.001 7.119v7.683c0 .199.073.39.203.53.13.141.307.22.491.22l4.864-.014a.67.67 0 00.489-.22.786.786 0 00.202-.53V15.75a.78.78 0 01.203-.53.67.67 0 01.491-.22h2.778c.184 0 .36.08.49.22s.204.332.204.53v4.484c0 .099.018.197.052.288a.757.757 0 00.15.244c.065.07.142.125.226.163a.65.65 0 00.266.057l4.862.015a.67.67 0 00.491-.22.782.782 0 00.203-.53v-7.688l-8-7.114a.505.505 0 00-.331-.127.505.505 0 00-.332.127zm12.64 4.838l-3.628-3.23V.563a.586.586 0 00-.153-.398.502.502 0 00-.368-.165h-2.43a.505.505 0 00-.369.165.586.586 0 00-.152.398v3.404L13.822.513a1.99 1.99 0 00-1.324-.512c-.482 0-.95.18-1.323.512L.189 10.287a.555.555 0 00-.128.17.596.596 0 00.059.622l1.106 1.453a.53.53 0 00.158.14.493.493 0 00.576-.064l10.21-9.082a.505.505 0 01.332-.127c.12 0 .238.045.332.127l10.208 9.082a.508.508 0 00.381.127.494.494 0 00.195-.063.532.532 0 00.158-.139l1.107-1.453a.577.577 0 00.115-.413.595.595 0 00-.19-.38z" fill="#404040"/></svg>