<svg width="8" height="15" fill="none" xmlns="http://www.w3.org/2000/svg"><path d="M5.811 6.42l-3-.864a.81.81 0 01-.59-.774c0-.446.367-.807.82-.807h1.842c.34 0 .673.102.95.287.17.113.398.085.542-.054l.967-.93a.439.439 0 00-.05-.67 3.97 3.97 0 00-2.403-.82V.475c0-.24-.2-.437-.445-.437h-.889a.442.442 0 00-.444.437v1.313h-.07c-1.77 0-3.192 1.496-3.028 3.27C.13 6.318 1.108 7.344 2.34 7.7l2.848.82a.813.813 0 01.589.774.813.813 0 01-.82.806H3.116c-.339 0-.672-.1-.95-.287a.438.438 0 00-.542.055l-.967.93a.439.439 0 00.05.67 3.978 3.978 0 002.404.82V13.6c0 .241.2.438.444.438h.89a.442.442 0 00.444-.438v-1.318c1.295-.024 2.509-.782 2.937-1.988C8.423 8.61 7.42 6.882 5.81 6.42z" fill="#F60"/></svg>