<svg width="25" height="18" fill="none" xmlns="http://www.w3.org/2000/svg"><path d="M24.264.877C22.75.242 21.232 0 19.717 0c-4.811 0-9.622 2.435-14.434 2.435-1.206 0-2.412-.153-3.619-.536a1.336 1.336 0 00-.404-.063c-.672 0-1.26.52-1.26 1.243v12.393c0 .493.282.96.736 1.15 1.515.636 3.032.878 4.547.878 4.811 0 9.623-2.435 14.434-2.435 1.207 0 2.413.153 3.62.535.135.043.27.064.404.064.672 0 1.26-.52 1.26-1.243V2.03c-.001-.494-.283-.961-.737-1.152zM1.875 3.915c.786.197 1.606.296 2.45.349a2.503 2.503 0 01-2.45 2.013V3.915zm0 11.133V13.18a2.5 2.5 0 012.489 2.399 9.438 9.438 0 01-2.489-.532zM12.5 12.5c-1.726 0-3.125-1.68-3.125-3.75 0-2.071 1.4-3.75 3.125-3.75 1.726 0 3.125 1.679 3.125 3.75 0 2.072-1.4 3.75-3.125 3.75zm10.625 1.085a13.428 13.428 0 00-2.122-.33 2.495 2.495 0 012.122-1.925v2.255zm0-9.223a2.495 2.495 0 01-2.18-2.404 9.39 9.39 0 012.18.494v1.91z" fill="#404040"/></svg>