<svg width="22" height="20" viewBox="0 0 22 20" fill="none" xmlns="http://www.w3.org/2000/svg">
<path d="M0.78125 3.96423H21.0938C21.5252 3.96423 21.875 3.61448 21.875 3.18298V1.22986C21.875 0.798364 21.5252 0.448608 21.0938 0.448608H0.78125C0.349756 0.448608 0 0.798364 0 1.22986V3.18298C0 3.61448 0.349756 3.96423 0.78125 3.96423ZM0.78125 11.7767H21.0938C21.5252 11.7767 21.875 11.427 21.875 10.9955V9.04236C21.875 8.61086 21.5252 8.26111 21.0938 8.26111H0.78125C0.349756 8.26111 0 8.61086 0 9.04236V10.9955C0 11.427 0.349756 11.7767 0.78125 11.7767ZM0.78125 19.5892H21.0938C21.5252 19.5892 21.875 19.2395 21.875 18.808V16.8549C21.875 16.4234 21.5252 16.0736 21.0938 16.0736H0.78125C0.349756 16.0736 0 16.4234 0 16.8549V18.808C0 19.2395 0.349756 19.5892 0.78125 19.5892Z" fill="black"/>
</svg>
