<svg width="22" height="19" viewBox="0 0 22 19" fill="none" xmlns="http://www.w3.org/2000/svg">
<path d="M8.33285 15.7396C8.22017 15.5199 8.02385 15.4976 7.94441 15.4976C7.86497 15.4976 7.66865 15.5195 7.5617 15.7273L7.26875 16.2966C7.02546 16.7708 6.31275 16.7185 6.14279 16.219L5.49998 14.3461L5.09474 15.5292C4.86977 16.1845 4.23995 16.625 3.52877 16.625H3.05554C2.71791 16.625 2.44443 16.3593 2.44443 16.0312C2.44443 15.7032 2.71791 15.4375 3.05554 15.4375H3.52877C3.71325 15.4375 3.87672 15.3232 3.93516 15.1532L4.62991 13.1256C4.75595 12.7615 5.10505 12.5166 5.49998 12.5166C5.89491 12.5166 6.244 12.7612 6.36966 13.1256L6.8998 14.6708C7.65413 14.07 8.96458 14.3109 9.42062 15.1963C9.49281 15.3366 9.63031 15.4171 9.77812 15.4286V12.3812L14.667 7.66494V5.9375H9.47218C8.96802 5.9375 8.55552 5.53672 8.55552 5.04688V0H0.916663C0.408679 0 0 0.39707 0 0.890625V18.1094C0 18.6029 0.408679 19 0.916663 19H13.7499C14.2579 19 14.6666 18.6029 14.6666 18.1094V16.625L9.77774 16.6209C9.16204 16.6094 8.60975 16.2765 8.33285 15.7396ZM14.6666 4.52363C14.6666 4.28984 14.5711 4.06348 14.3992 3.89648L10.66 0.259766C10.4881 0.0927734 10.2552 0 10.0107 0H9.77774V4.75H14.6666V4.52363ZM11 12.8755V15.4375H13.635L19.8102 9.39684L17.2176 6.87785L11 12.8755ZM21.715 6.20951L20.4977 5.02684C20.1181 4.65797 19.502 4.65797 19.1223 5.02684L18.0816 6.03807L20.6742 8.55705L21.715 7.54582C22.095 7.17695 22.095 6.57838 21.715 6.20951Z" fill="#404040"/>
</svg>
