<svg width="12" height="13" viewBox="0 0 12 13" fill="none" xmlns="http://www.w3.org/2000/svg">
<path d="M5.0625 0.0378418H6.9375C7.24922 0.0378418 7.5 0.288623 7.5 0.600342V4.53784H9.55547C9.97266 4.53784 10.1812 5.04175 9.88594 5.33706L6.32109 8.90425C6.14531 9.08003 5.85703 9.08003 5.68125 8.90425L2.11172 5.33706C1.81641 5.04175 2.025 4.53784 2.44219 4.53784H4.5V0.600342C4.5 0.288623 4.75078 0.0378418 5.0625 0.0378418ZM12 8.85034V11.4753C12 11.7871 11.7492 12.0378 11.4375 12.0378H0.5625C0.250781 12.0378 0 11.7871 0 11.4753V8.85034C0 8.53862 0.250781 8.28784 0.5625 8.28784H4.00078L5.14922 9.43628C5.62031 9.90737 6.37969 9.90737 6.85078 9.43628L7.99922 8.28784H11.4375C11.7492 8.28784 12 8.53862 12 8.85034ZM9.09375 10.9128C9.09375 10.655 8.88281 10.4441 8.625 10.4441C8.36719 10.4441 8.15625 10.655 8.15625 10.9128C8.15625 11.1707 8.36719 11.3816 8.625 11.3816C8.88281 11.3816 9.09375 11.1707 9.09375 10.9128ZM10.5938 10.9128C10.5938 10.655 10.3828 10.4441 10.125 10.4441C9.86719 10.4441 9.65625 10.655 9.65625 10.9128C9.65625 11.1707 9.86719 11.3816 10.125 11.3816C10.3828 11.3816 10.5938 11.1707 10.5938 10.9128Z" fill="#FF6600"/>
</svg>
