<svg width="12" height="13" viewBox="0 0 12 13" fill="none" xmlns="http://www.w3.org/2000/svg">
<path d="M11.6695 3.36669L10.589 4.4472C10.4788 4.55736 10.3007 4.55736 10.1905 4.4472L7.58886 1.84553C7.4787 1.73537 7.4787 1.55724 7.58886 1.44708L8.66938 0.366566C9.10768 -0.0717329 9.82021 -0.0717329 10.2609 0.366566L11.6695 1.77522C12.1102 2.21351 12.1102 2.92604 11.6695 3.36669ZM6.66069 2.37524L0.505718 8.53017L0.00882005 11.3779C-0.0591519 11.7623 0.27602 12.0952 0.660413 12.0295L3.5082 11.5303L9.66317 5.37536C9.77333 5.2652 9.77333 5.08707 9.66317 4.97691L7.06149 2.37524C6.94899 2.26508 6.77085 2.26508 6.66069 2.37524ZM2.90817 8.00281C2.77926 7.87389 2.77926 7.66764 2.90817 7.53873L6.51772 3.92921C6.64663 3.8003 6.85289 3.8003 6.9818 3.92921C7.11071 4.05812 7.11071 4.26438 6.9818 4.39329L3.37226 8.00281C3.24334 8.13172 3.03709 8.13172 2.90817 8.00281ZM2.06204 9.97398H3.18709V10.8248L1.6753 11.0896L0.946364 10.3607L1.21122 8.84893H2.06204V9.97398Z" fill="#FF6600"/>
</svg>
