<svg width="17" height="23" viewBox="0 0 17 23" fill="none" xmlns="http://www.w3.org/2000/svg">
<path d="M9.91667 6.10938V0H1.0625C0.473698 0 0 0.480664 0 1.07812V21.9219C0 22.5193 0.473698 23 1.0625 23H15.9375C16.5263 23 17 22.5193 17 21.9219V7.1875H10.9792C10.3948 7.1875 9.91667 6.70234 9.91667 6.10938ZM13.3012 15.6041L9.03258 19.9031C8.73818 20.2 8.26271 20.2 7.96831 19.9031L3.69971 15.6041C3.25036 15.1517 3.56557 14.375 4.19776 14.375H7.08333V10.7812C7.08333 10.3841 7.40031 10.0625 7.79167 10.0625H9.20833C9.59969 10.0625 9.91667 10.3841 9.91667 10.7812V14.375H12.8022C13.4344 14.375 13.7496 15.1517 13.3012 15.6041ZM16.6901 4.7168L12.356 0.314453C12.1568 0.112305 11.8867 0 11.6034 0H11.3333V5.75H17V5.47598C17 5.19297 16.8893 4.91895 16.6901 4.7168Z" fill="#404040"/>
</svg>
