<svg width="25" height="21" viewBox="0 0 25 21" fill="none" xmlns="http://www.w3.org/2000/svg">
<path d="M12.1685 5.44795L4.167 12.5667V20.2499C4.167 20.4489 4.24016 20.6396 4.37038 20.7803C4.5006 20.921 4.67722 21 4.86139 21L9.72473 20.9864C9.90829 20.9854 10.084 20.9059 10.2135 20.7654C10.343 20.6248 10.4156 20.4346 10.4156 20.2363V15.7494C10.4156 15.5505 10.4888 15.3597 10.619 15.219C10.7493 15.0784 10.9259 14.9993 11.11 14.9993H13.8876C14.0718 14.9993 14.2484 15.0784 14.3786 15.219C14.5088 15.3597 14.582 15.5505 14.582 15.7494V20.233C14.5817 20.3317 14.5995 20.4295 14.6342 20.5208C14.669 20.6121 14.7201 20.695 14.7846 20.7649C14.8491 20.8348 14.9258 20.8903 15.0101 20.9281C15.0945 20.966 15.185 20.9855 15.2764 20.9855L20.138 21C20.3222 21 20.4988 20.921 20.629 20.7803C20.7592 20.6396 20.8324 20.4489 20.8324 20.2499V12.5616L12.8326 5.44795C12.7385 5.36606 12.6214 5.32141 12.5006 5.32141C12.3798 5.32141 12.2626 5.36606 12.1685 5.44795ZM24.8078 10.2865L21.1796 7.05594V0.562563C21.1796 0.413362 21.1247 0.270272 21.027 0.164771C20.9294 0.0592699 20.7969 0 20.6588 0H18.2284C18.0903 0 17.9578 0.0592699 17.8602 0.164771C17.7625 0.270272 17.7076 0.413362 17.7076 0.562563V3.96654L13.8221 0.513339C13.4492 0.181886 12.9813 0.00066258 12.4984 0.00066258C12.0155 0.00066258 11.5476 0.181886 11.1747 0.513339L0.189004 10.2865C0.136268 10.3335 0.0926378 10.3914 0.0606055 10.4567C0.0285733 10.522 0.00876702 10.5935 0.00231847 10.6671C-0.00413009 10.7406 0.00290544 10.8149 0.0230231 10.8855C0.0431407 10.9561 0.0759461 11.0218 0.119565 11.0787L1.22625 12.532C1.26975 12.5892 1.32326 12.6365 1.3837 12.6712C1.44415 12.706 1.51035 12.7276 1.57852 12.7347C1.64669 12.7418 1.71548 12.7343 1.78096 12.7126C1.84645 12.6909 1.90733 12.6555 1.96013 12.6084L12.1685 3.52586C12.2626 3.44397 12.3798 3.39932 12.5006 3.39932C12.6214 3.39932 12.7385 3.44397 12.8326 3.52586L23.0414 12.6084C23.0941 12.6556 23.1549 12.691 23.2203 12.7127C23.2857 12.7345 23.3544 12.7421 23.4225 12.7351C23.4906 12.7281 23.5568 12.7067 23.6173 12.6721C23.6777 12.6375 23.7313 12.5904 23.7749 12.5334L24.8815 11.0801C24.9251 11.0229 24.9578 10.9569 24.9777 10.8859C24.9975 10.815 25.0043 10.7405 24.9974 10.6667C24.9905 10.593 24.9703 10.5214 24.9377 10.4562C24.9052 10.3909 24.861 10.3332 24.8078 10.2865Z" fill="#404040"/>
</svg>
