<svg width="8" height="15" viewBox="0 0 8 15" fill="none" xmlns="http://www.w3.org/2000/svg">
<path d="M5.81135 6.41987L2.8107 5.55581C2.46341 5.45737 2.22169 5.13745 2.22169 4.78198C2.22169 4.33628 2.58843 3.97534 3.04131 3.97534H4.88337C5.22233 3.97534 5.55574 4.07651 5.83357 4.26245C6.00306 4.37456 6.23088 4.34722 6.37536 4.20776L7.34223 3.27808C7.5395 3.0894 7.51171 2.77495 7.29222 2.60815C6.61152 2.08315 5.76134 1.79058 4.88893 1.78784V0.475342C4.88893 0.234717 4.68888 0.0378418 4.44439 0.0378418H3.55531C3.31081 0.0378418 3.11077 0.234717 3.11077 0.475342V1.78784H3.04131C1.27148 1.78784 -0.151044 3.28355 0.0128797 5.05815C0.129571 6.3187 1.10756 7.34409 2.34116 7.69956L5.18899 8.51987C5.53629 8.62105 5.77801 8.93823 5.77801 9.2937C5.77801 9.7394 5.41126 10.1003 4.95839 10.1003H3.11632C2.77736 10.1003 2.44396 9.99917 2.16612 9.81323C1.99664 9.70112 1.76881 9.72847 1.62434 9.86792L0.657463 10.7976C0.460198 10.9863 0.487982 11.3007 0.707473 11.4675C1.38818 11.9925 2.23836 12.2851 3.11077 12.2878V13.6003C3.11077 13.841 3.31081 14.0378 3.55531 14.0378H4.44439C4.68888 14.0378 4.88893 13.841 4.88893 13.6003V12.2824C6.18365 12.2578 7.3978 11.5003 7.82567 10.2945C8.42302 8.61011 7.42003 6.88198 5.81135 6.41987Z" fill="#FF6600"/>
</svg>
